<svg xmlns="http://www.w3.org/2000/svg" viewBox="0 0 360 190" fill="none">
  <!-- Slide 3: AI agent → Skills + MCPs → capabilities -->
  <defs>
    <linearGradient id="s3-bg" x1="0" y1="0" x2="0" y2="1">
      <stop offset="0" stop-color="#10151d"/>
      <stop offset="1" stop-color="#0a0e14"/>
    </linearGradient>
  </defs>
  <rect width="360" height="190" rx="14" fill="url(#s3-bg)"/>
  <circle cx="100" cy="95" r="56" fill="#3b82f6" opacity="0.12"/>
  <!-- agent node -->
  <circle cx="100" cy="95" r="34" fill="#e8eef6"/>
  <circle cx="100" cy="95" r="34" fill="url(#s3-bg)" opacity="0"/>
  <rect x="76" y="71" width="48" height="30" rx="15" fill="#0a0e14"/>
  <circle cx="88" cy="86" r="4.5" fill="#5b9bff"/>
  <circle cx="112" cy="86" r="4.5" fill="#5b9bff"/>
  <path d="M91 92 q9 6 18 0" stroke="#5b9bff" stroke-width="2" fill="none" stroke-linecap="round"/>
  <rect x="84" y="103" width="32" height="14" rx="6" fill="#0a0e14"/>
  <path d="M100 103 C102 106 98 109 100 112" stroke="#3b82f6" stroke-width="1.6" fill="none" stroke-linecap="round"/>
  <!-- branches -->
  <path d="M134 82 C160 72 174 74 186 82" stroke="#3b82f6" stroke-width="1.6" stroke-dasharray="3 4" opacity="0.75"/>
  <path d="M134 108 C160 120 174 116 186 108" stroke="#3b82f6" stroke-width="1.6" stroke-dasharray="3 4" opacity="0.75"/>
  <!-- skills card -->
  <rect x="188" y="64" width="58" height="54" rx="10" fill="#10151d" stroke="#5b9bff" stroke-width="1.4"/>
  <path d="M200 70h6a2 2 0 0 1 2 2v34a2 2 0 0 1-2 2h-6zM210 70h12a2 2 0 0 1 2 2v34a2 2 0 0 1-2 2h-12z" stroke="#5b9bff" stroke-width="1.3"/>
  <path d="M203 84h4M203 90h4M203 96h4M213 84h6M213 90h6" stroke="#5b9bff" stroke-width="1.5" stroke-linecap="round"/>
  <!-- mcp/tool node -->
  <rect x="188" y="128" width="58" height="36" rx="10" fill="#10151d" stroke="#5b9bff" stroke-width="1.4"/>
  <path d="M206 136h8a4 4 0 0 1 4 4v4a4 4 0 0 1-4 4h-8a4 4 0 0 1-4-4v-4a4 4 0 0 1 4-4zM220 140v8M224 144h-8" stroke="#5b9bff" stroke-width="1.5" stroke-linecap="round"/>
  <!-- capability dots -->
  <circle cx="280" cy="70" r="9" fill="#10151d" stroke="#8b94a3" stroke-width="1.3"/>
  <circle cx="280" cy="70" r="3" fill="#5b9bff"/>
  <circle cx="280" cy="95" r="9" fill="#10151d" stroke="#8b94a3" stroke-width="1.3"/>
  <circle cx="280" cy="95" r="3" fill="#5b9bff"/>
  <circle cx="280" cy="120" r="9" fill="#10151d" stroke="#8b94a3" stroke-width="1.3"/>
  <circle cx="280" cy="120" r="3" fill="#5b9bff"/>
  <path d="M246 82 C258 78 266 78 272 80" stroke="#3b82f6" stroke-width="1.4" stroke-dasharray="3 4" opacity="0.7"/>
  <path d="M246 95 C258 95 266 95 272 95" stroke="#3b82f6" stroke-width="1.4" stroke-dasharray="3 4" opacity="0.7"/>
  <path d="M246 108 C258 112 266 112 272 110" stroke="#3b82f6" stroke-width="1.4" stroke-dasharray="3 4" opacity="0.7"/>
</svg>
